<?xml version="1.0" standalone="no"?>
<!DOCTYPE svg PUBLIC "-//W3C//DTD SVG 20010904//EN"
 "http://www.w3.org/TR/2001/REC-SVG-20010904/DTD/svg10.dtd">
<svg version="1.0" xmlns="http://www.w3.org/2000/svg"
 width="594.000000pt" height="436.000000pt" viewBox="0 0 594.000000 436.000000"
 preserveAspectRatio="xMidYMid meet">

<g transform="translate(0.000000,436.000000) scale(0.100000,-0.100000)"
fill="#000000" stroke="none">
<path d="M2848 4206 c3 -5 -2 -6 -12 -3 -9 4 -15 3 -12 -2 7 -10 -22 -23 -34
-16 -5 3 -12 0 -16 -6 -5 -8 -3 -9 6 -4 9 6 11 4 6 -4 -5 -7 -14 -10 -22 -7
-8 3 -13 0 -11 -6 1 -7 -19 -24 -45 -38 -27 -14 -48 -28 -48 -32 0 -9 460
-272 483 -276 17 -3 217 105 217 118 0 3 -20 16 -44 30 -25 13 -43 27 -40 31
2 4 -4 6 -14 5 -9 0 -16 4 -15 11 2 8 -4 10 -14 6 -10 -4 -14 -2 -9 5 3 6 1
14 -5 18 -8 4 -9 3 -5 -4 10 -17 2 -15 -38 9 -20 12 -33 25 -30 30 3 5 -3 6
-12 2 -13 -5 -15 -3 -9 7 5 9 4 11 -3 6 -15 -9 -54 12 -47 24 4 6 -1 7 -11 3
-13 -5 -15 -3 -9 7 5 9 4 11 -3 6 -19 -12 -128 54 -114 69 4 5 2 5 -5 2 -13
-8 -45 2 -39 12 2 3 -9 6 -24 6 -15 0 -26 -4 -22 -9z m36 -102 c20 -7 21 -20
3 -27 -19 -7 -41 8 -33 22 8 13 9 13 30 5z m106 -65 c0 -16 -31 -22 -43 -10
-9 9 -9 14 2 20 16 10 41 4 41 -10z m82 -62 c-16 -7 -26 -7 -35 2 -18 18 11
33 37 19 20 -11 20 -11 -2 -21z m98 -37 c12 -8 12 -10 -3 -16 -22 -8 -50 3
-42 16 8 12 25 13 45 0z"/>
<path d="M2980 4165 c14 -8 30 -14 35 -14 6 0 -1 6 -15 14 -14 8 -29 14 -35
14 -5 0 1 -6 15 -14z"/>
<path d="M5365 4151 c-3 -5 -2 -12 3 -15 5 -3 9 1 9 9 0 17 -3 19 -12 6z"/>
<path d="M5014 4132 c-54 -26 -95 -78 -123 -155 l-22 -63 -67 22 c-79 27 -104
23 -153 -23 -87 -83 -78 -262 19 -358 25 -25 297 -189 406 -246 17 -8 141 -80
275 -159 135 -78 259 -148 275 -155 67 -26 116 18 124 110 8 100 -44 185 -125
201 l-31 6 -4 87 c-3 67 -10 97 -30 136 -45 87 -125 145 -198 145 -34 0 -34 1
-20 83 36 223 -160 446 -326 369z m200 -434 c8 -18 25 -58 39 -88 47 -106 53
-130 37 -141 -8 -5 -27 -6 -42 -3 -24 5 -28 2 -29 -18 -1 -13 -1 -26 0 -30 0
-4 -10 -15 -23 -23 -23 -15 -28 -14 -85 14 -70 36 -82 52 -70 95 16 55 11 76
-21 94 -16 9 -30 22 -30 28 0 9 183 104 202 104 5 0 15 -15 22 -32z"/>
<path d="M5414 4142 c3 -5 0 -13 -6 -15 -9 -4 -10 -6 -1 -6 17 -1 25 16 12 25
-7 4 -9 3 -5 -4z"/>
<path d="M3300 3980 c8 -5 20 -10 25 -10 6 0 3 5 -5 10 -8 5 -19 10 -25 10 -5
0 -3 -5 5 -10z"/>
<path d="M3540 3843 c-52 -31 -111 -65 -130 -75 -19 -11 -77 -45 -127 -75
l-93 -54 0 -765 0 -765 55 31 c124 71 164 98 157 105 -4 5 -2 5 5 1 7 -4 29 4
50 17 21 13 59 34 84 46 26 13 59 34 73 46 l26 22 -2 761 -3 760 -95 -55z m40
-252 l0 -79 -150 -86 c-82 -47 -155 -86 -162 -86 -7 0 -2 6 12 13 97 51 267
153 278 165 7 9 12 44 12 84 0 37 2 68 5 68 3 0 5 -36 5 -79z m-102 -63 c-4
-29 -38 -38 -38 -10 0 22 8 32 27 32 9 0 13 -8 11 -22z m92 -364 c-10 -11 -66
-43 -270 -156 -32 -18 -33 -18 -13 -1 12 10 58 38 102 63 45 25 103 59 129 75
l47 30 5 75 4 75 4 -73 c2 -45 -2 -79 -8 -88z m-90 28 c0 -19 -18 -42 -32 -42
-12 0 -9 35 4 48 17 17 28 15 28 -6z m96 -357 c-4 -14 -53 -48 -151 -104 -81
-46 -148 -81 -151 -78 -3 2 60 41 139 86 80 44 148 88 151 97 3 9 7 46 8 82
l2 67 3 -65 c2 -35 2 -74 -1 -85z m-98 3 c-4 -29 -38 -38 -38 -10 0 19 11 29
33 31 5 1 7 -9 5 -21z m98 -345 c-6 -21 -80 -69 -251 -163 -109 -60 -43 -13
85 60 69 40 133 79 143 88 13 11 17 33 19 86 l2 71 3 -60 c2 -32 2 -69 -1 -82z
m-106 -18 c-17 -21 -30 -19 -30 5 0 24 33 46 38 24 2 -8 -2 -21 -8 -29z"/>
<path d="M2716 3807 c3 -10 9 -15 12 -12 3 3 0 11 -7 18 -10 9 -11 8 -5 -6z"/>
<path d="M2620 3788 c0 -18 18 -34 28 -24 3 4 -2 14 -11 23 -16 16 -17 16 -17
1z"/>
<path d="M2672 3754 c1 -9 9 -19 16 -22 9 -3 13 2 10 14 -1 9 -9 19 -16 22 -9
3 -13 -2 -10 -14z"/>
<path d="M5576 3747 c3 -10 9 -15 12 -12 3 3 0 11 -7 18 -10 9 -11 8 -5 -6z"/>
<path d="M2772 3694 c1 -9 9 -19 16 -22 9 -3 13 2 10 14 -1 9 -9 19 -16 22 -9
3 -13 -2 -10 -14z"/>
<path d="M5694 3649 c-3 -6 -2 -15 3 -20 5 -5 9 -1 9 11 0 23 -2 24 -12 9z"/>
<path d="M2737 3589 c7 -7 15 -10 18 -7 3 3 -2 9 -12 12 -14 6 -15 5 -6 -5z"/>
<path d="M2970 3581 c0 -11 10 -27 23 -36 21 -15 22 -14 25 5 4 24 -14 50 -34
50 -8 0 -14 -9 -14 -19z"/>
<path d="M2672 3544 c1 -9 9 -19 16 -22 9 -3 13 2 10 14 -1 9 -9 19 -16 22 -9
3 -13 -2 -10 -14z"/>
<path d="M2527 3499 c7 -7 15 -10 18 -7 3 3 -2 9 -12 12 -14 6 -15 5 -6 -5z"/>
<path d="M2772 3489 c2 -7 10 -15 17 -17 8 -3 12 1 9 9 -2 7 -10 15 -17 17 -8
3 -12 -1 -9 -9z"/>
<path d="M0 3408 l0 -74 142 -81 c78 -44 143 -84 145 -89 2 -5 -22 -22 -52
-39 l-55 -29 30 -19 31 -19 58 31 c32 17 63 31 69 31 5 0 65 -32 133 -72 213
-123 310 -178 316 -178 9 0 107 63 114 73 3 5 10 9 15 9 21 1 33 11 27 21 -3
6 -1 7 6 3 6 -4 35 7 65 23 53 31 74 55 55 65 -5 2 -4 3 3 2 7 -2 12 -9 10
-15 -3 -16 52 13 77 41 11 11 18 25 15 29 -3 5 2 6 11 3 14 -6 14 -8 -2 -21
-17 -13 -16 -13 4 -3 30 14 38 30 16 31 -11 0 -13 3 -5 6 7 3 45 -14 84 -38
67 -39 73 -41 97 -28 14 8 26 19 26 23 0 5 -26 23 -58 41 -57 32 -57 32 -31
43 14 7 22 17 19 22 -3 5 0 7 9 4 8 -3 23 -1 33 5 10 6 13 11 6 11 -7 0 -10 7
-7 15 4 9 -2 18 -17 23 l-22 9 22 22 c24 24 41 20 41 -10 0 -23 18 -26 26 -4
4 8 10 15 15 15 11 0 7 -23 -6 -32 -6 -4 -2 -8 9 -8 13 0 16 5 12 16 -5 12 -2
15 11 10 16 -5 16 -5 0 8 -24 18 -14 61 11 51 9 -3 13 -2 8 2 -10 10 -87 12
-80 2 2 -5 11 -6 18 -3 18 7 27 -8 15 -26 -7 -12 -9 -12 -9 -1 0 11 -3 11 -15
1 -13 -11 -19 -7 -17 11 1 4 -7 9 -18 12 -11 3 -19 2 -18 -2 3 -25 -4 -33 -27
-29 -14 3 -25 1 -25 -3 0 -5 -3 -8 -7 -8 -20 3 -34 -2 -28 -11 4 -7 13 -6 26
1 12 6 23 8 27 5 3 -3 -1 -6 -8 -6 -8 0 1 -15 20 -35 19 -19 29 -35 22 -35 -6
0 -16 9 -22 20 -6 11 -15 18 -21 15 -5 -4 -8 -1 -7 6 2 6 -3 14 -11 17 -9 3
-11 0 -6 -8 5 -9 0 -7 -15 3 -21 14 -25 14 -49 0 -14 -9 -37 -26 -50 -37 -13
-12 -21 -15 -16 -7 4 8 -12 0 -36 -16 -24 -17 -72 -45 -107 -62 -39 -20 -60
-36 -56 -43 4 -7 3 -8 -4 -4 -18 11 -166 -80 -174 -107 -5 -20 -6 -20 -7 6 -1
15 -5 27 -10 27 -4 0 -82 43 -172 96 -90 53 -252 147 -359 209 -107 61 -212
122 -232 134 l-38 23 0 -74z m1454 -123 c-4 -8 -8 -15 -10 -15 -2 0 -4 7 -4
15 0 8 4 15 10 15 5 0 7 -7 4 -15z m-169 -43 c-3 -3 -16 -7 -28 -9 -21 -3 -21
-2 -3 12 17 13 45 11 31 -3z m45 -52 c0 -5 -4 -10 -10 -10 -5 0 -10 5 -10 10
0 6 5 10 10 10 6 0 10 -4 10 -10z m-316 -168 c3 -5 -1 -9 -9 -9 -8 0 -12 4 -9
9 3 4 7 8 9 8 2 0 6 -4 9 -8z m-197 -124 c-2 -13 -4 -3 -4 22 0 25 2 35 4 23
2 -13 2 -33 0 -45z"/>
<path d="M4140 3450 c-8 -5 -10 -10 -3 -10 6 0 67 -32 135 -71 146 -84 391
-225 433 -249 17 -9 208 -120 425 -245 217 -126 414 -240 438 -253 57 -32 92
-80 92 -125 0 -20 -25 -148 -55 -284 -31 -137 -57 -257 -59 -268 -3 -11 -29
-133 -60 -272 -31 -139 -56 -258 -56 -265 0 -7 -7 -25 -14 -40 -18 -34 -6 -36
28 -5 28 24 15 -29 201 817 37 168 67 320 67 337 -2 60 -25 85 -132 147 -57
33 -109 59 -116 59 -8 0 -12 3 -9 6 3 3 -7 12 -24 21 -16 8 -75 42 -130 75
-56 33 -113 67 -129 75 -47 27 -353 202 -724 416 -108 63 -201 114 -206 114
-5 0 -15 7 -22 15 -14 17 -57 20 -80 5z"/>
<path d="M2970 3375 c0 -21 24 -45 44 -45 14 0 4 44 -11 56 -26 19 -33 17 -33
-11z"/>
<path d="M1490 3376 c7 -7 13 -7 20 0 6 6 3 10 -10 10 -13 0 -16 -4 -10 -10z"/>
<path d="M2670 3336 c0 -9 7 -16 16 -16 9 0 14 5 12 12 -6 18 -28 21 -28 4z"/>
<path d="M1520 3310 c-11 -7 -11 -10 -2 -10 7 0 10 -4 7 -10 -3 -6 1 -7 9 -4
9 3 14 10 11 14 -3 5 1 11 7 13 9 4 8 6 -2 6 -8 0 -22 -4 -30 -9z"/>
<path d="M2772 3279 c2 -7 10 -15 17 -17 8 -3 12 1 9 9 -2 7 -10 15 -17 17 -8
3 -12 -1 -9 -9z"/>
<path d="M5866 3253 c-6 -14 -5 -15 5 -6 7 7 10 15 7 18 -3 3 -9 -2 -12 -12z"/>
<path d="M5897 3257 c-3 -8 1 -14 8 -14 7 0 11 6 8 14 -3 7 -6 13 -8 13 -2 0
-5 -6 -8 -13z"/>
<path d="M1430 3240 c-13 -8 -12 -10 3 -10 9 0 17 5 17 10 0 12 -1 12 -20 0z"/>
<path d="M4876 3221 c-4 -6 -2 -11 4 -11 6 0 9 -4 6 -8 -7 -12 43 -7 56 6 9 9
9 12 -2 12 -8 0 -25 3 -36 6 -12 3 -25 1 -28 -5z"/>
<path d="M2970 3165 c0 -21 24 -45 44 -45 15 0 4 50 -13 60 -28 14 -31 13 -31
-15z"/>
<path d="M4896 3182 c-3 -5 1 -9 9 -9 8 0 12 4 9 9 -3 4 -7 8 -9 8 -2 0 -6 -4
-9 -8z"/>
<path d="M2622 3159 c2 -7 10 -15 17 -17 8 -3 12 1 9 9 -2 7 -10 15 -17 17 -8
3 -12 -1 -9 -9z"/>
<path d="M5035 3136 c-19 -14 -19 -15 9 -26 24 -9 32 -8 45 5 14 13 13 15 -6
15 -12 0 -23 5 -25 10 -2 7 -11 5 -23 -4z"/>
<path d="M2672 3129 c2 -7 10 -15 17 -17 8 -3 12 1 9 9 -2 7 -10 15 -17 17 -8
3 -12 -1 -9 -9z"/>
<path d="M2842 3114 c10 -10 20 -16 22 -13 3 3 -5 11 -17 18 -21 13 -21 12 -5
-5z"/>
<path d="M0 2913 l1 -178 305 -175 c169 -96 325 -186 348 -199 22 -12 67 -39
99 -58 l58 -35 81 47 c45 26 98 56 117 67 66 37 106 62 112 71 3 5 9 8 13 7
14 -4 186 102 180 111 -3 5 1 10 8 11 7 0 18 2 23 2 6 1 28 11 48 24 42 24 41
47 -3 39 -19 -4 -27 -2 -27 8 0 10 8 13 26 9 21 -5 23 -3 11 6 -13 9 -12 10 5
6 45 -12 56 25 16 53 -26 19 -29 27 -36 107 -4 47 -8 84 -10 82 -1 -2 -5 -29
-9 -61 -4 -39 -3 -56 4 -52 5 3 10 -1 10 -9 0 -13 -3 -14 -18 -5 -11 7 -18 21
-16 35 2 21 -1 22 -39 19 -32 -3 -38 -1 -24 6 17 10 15 29 -4 29 -6 0 -8 -4
-5 -9 4 -5 -4 -7 -16 -4 -13 3 -20 2 -16 -2 5 -5 -16 -18 -45 -30 -28 -12 -51
-27 -49 -34 1 -6 -3 -11 -10 -9 -15 2 -80 -30 -89 -44 -3 -5 -10 -10 -15 -11
-5 -1 -8 -8 -8 -15 1 -8 -2 -10 -10 -3 -7 6 -32 -3 -75 -29 -36 -22 -77 -44
-93 -51 l-28 -11 -3 -177 -2 -176 -3 175 -2 175 -353 204 c-193 112 -373 217
-398 233 -25 15 -49 28 -52 28 -4 0 -7 -80 -7 -177z m258 -96 c29 -31 38 -79
19 -96 -30 -24 -87 28 -87 80 0 46 33 54 68 16z m939 -1 c0 -8 -6 -12 -15 -8
-11 4 -13 1 -7 -8 6 -9 4 -11 -5 -5 -10 6 -9 11 5 22 23 16 22 16 22 -1z m163
-51 c0 -8 -4 -15 -8 -15 -5 0 -9 7 -9 15 0 8 4 15 9 15 4 0 8 -7 8 -15z m-925
-56 c33 -40 31 -82 -3 -87 -31 -5 -60 23 -68 64 -11 62 27 74 71 23z m561 -33
c1 -7 -4 -13 -12 -13 -9 0 -11 4 -4 12 5 7 8 15 5 18 -3 4 -2 5 2 2 4 -3 8
-11 9 -19z m31 -56 c-1 -14 -4 -16 -14 -8 -16 13 -17 22 -1 12 8 -5 9 -2 5 10
-4 9 -3 15 2 11 6 -3 9 -14 8 -25z m-437 10 c22 -12 43 -70 34 -93 -17 -46
-94 8 -94 65 0 39 21 49 60 28z m805 -10 c-27 -12 -43 -12 -25 0 8 5 22 9 30
9 10 0 8 -3 -5 -9z m-105 -40 c-8 -5 -22 -9 -30 -9 -10 0 -8 3 5 9 27 12 43
12 25 0z m-303 -95 c0 -8 -4 -12 -9 -9 -5 3 -6 10 -3 15 9 13 12 11 12 -6z
m40 -10 c0 -8 -3 -13 -5 -10 -3 3 -12 -1 -21 -7 -10 -8 -9 -4 3 10 23 26 23
26 23 7z"/>
<path d="M2772 3074 c1 -9 9 -19 16 -22 9 -3 13 2 10 14 -1 9 -9 19 -16 22 -9
3 -13 -2 -10 -14z"/>
<path d="M5187 3054 c-14 -15 -6 -32 17 -36 25 -5 46 7 46 25 0 5 -11 7 -25 5
-13 -3 -26 -1 -27 4 -2 5 -7 6 -11 2z"/>
<path d="M5200 2990 c-9 -6 -10 -10 -3 -10 6 0 15 5 18 10 8 12 4 12 -15 0z"/>
<path d="M1455 2980 c-3 -5 -2 -10 4 -10 5 0 13 5 16 10 3 6 2 10 -4 10 -5 0
-13 -4 -16 -10z"/>
<path d="M2622 2953 c2 -9 9 -18 16 -21 18 -6 15 25 -4 32 -11 4 -14 1 -12
-11z"/>
<path d="M5193 2955 c0 -8 4 -12 9 -9 5 3 6 10 3 15 -9 13 -12 11 -12 -6z"/>
<path d="M1370 2937 c-14 -8 -24 -19 -22 -27 2 -7 -3 -10 -12 -7 -11 4 -13 1
-9 -11 6 -15 5 -15 -10 -3 -15 12 -17 12 -11 -3 3 -9 11 -16 18 -16 6 0 4 -5
-4 -10 -8 -5 -10 -10 -4 -10 5 0 19 7 30 15 19 15 19 15 -1 8 -19 -6 -19 -6
-2 14 9 11 14 23 11 26 -4 4 5 11 20 16 14 6 26 13 26 16 0 7 -2 7 -30 -8z"/>
<path d="M1435 2920 c-3 -5 -1 -10 4 -10 6 0 11 5 11 10 0 6 -2 10 -4 10 -3 0
-8 -4 -11 -10z"/>
<path d="M1403 2840 c0 -47 2 -66 4 -42 2 23 2 61 0 85 -2 23 -4 4 -4 -43z"/>
<path d="M1461 2904 c0 -11 3 -14 6 -6 3 7 2 16 -1 19 -3 4 -6 -2 -5 -13z"/>
<path d="M1491 2904 c0 -11 3 -14 6 -6 3 7 2 16 -1 19 -3 4 -6 -2 -5 -13z"/>
<path d="M1455 2847 c1 -15 -2 -30 -7 -33 -4 -3 -8 -11 -8 -17 0 -7 4 -6 11 3
9 13 10 13 6 0 -2 -8 -12 -14 -21 -14 -9 1 -16 -5 -16 -13 0 -8 5 -11 10 -8 6
3 10 3 11 -2 0 -4 2 -15 4 -23 13 -53 13 -60 -2 -68 -12 -7 -13 -14 -6 -27 7
-12 13 -14 17 -6 4 6 2 11 -4 11 -7 0 -6 5 2 14 14 15 32 11 23 -5 -3 -5 1 -6
9 -3 10 4 14 15 12 28 -3 16 1 22 16 23 19 2 19 1 3 -11 -11 -8 -14 -15 -8
-19 6 -4 14 0 17 9 3 8 10 13 15 10 7 -5 8 8 2 32 -1 1 -10 -2 -22 -8 -17 -10
-20 -9 -17 7 2 12 -3 18 -19 18 -13 0 -23 5 -23 10 0 13 41 14 59 1 11 -8 13
-8 7 2 -6 10 -1 11 21 7 l28 -7 -25 14 c-14 8 -27 10 -28 6 -6 -14 -21 2 -16
17 3 8 13 11 22 8 13 -4 12 -2 -3 10 -12 10 -15 16 -7 17 10 0 10 3 0 14 -14
15 -32 0 -21 -18 4 -5 1 -6 -7 -1 -9 6 -11 4 -5 -6 7 -12 6 -12 -7 -1 -9 8
-19 23 -21 35 -3 13 -3 10 -2 -6z m43 -39 c12 15 12 15 3 -4 -6 -12 -8 -23 -6
-26 2 -2 -7 -4 -20 -4 -18 0 -22 3 -14 13 6 6 8 18 4 25 -3 7 0 5 7 -4 11 -15
13 -15 26 0z m-7 -87 c-5 -9 -7 -24 -6 -34 3 -15 1 -16 -11 -6 -8 6 -12 14
-10 17 3 2 1 12 -4 21 -7 14 -4 17 15 17 18 0 22 -4 16 -15z"/>
<path d="M1470 2844 c0 -8 5 -12 10 -9 6 3 10 10 10 16 0 5 -4 9 -10 9 -5 0
-10 -7 -10 -16z"/>
<path d="M1424 2835 c-3 -8 -4 -20 -2 -27 3 -7 7 -1 10 15 6 29 1 36 -8 12z"/>
<path d="M1548 2823 c7 -3 16 -2 19 1 4 3 -2 6 -13 5 -11 0 -14 -3 -6 -6z"/>
<path d="M2730 2806 c0 -2 7 -7 16 -10 8 -3 12 -2 9 4 -6 10 -25 14 -25 6z"/>
<path d="M1565 2790 c3 -5 8 -10 11 -10 2 0 4 5 4 10 0 6 -5 10 -11 10 -5 0
-7 -4 -4 -10z"/>
<path d="M1581 2748 c-1 -10 -5 -18 -9 -18 -5 0 -9 -7 -9 -16 0 -14 2 -14 14
2 7 10 13 14 13 10 0 -5 7 -3 15 4 8 7 15 18 15 24 0 6 -6 2 -12 -9 -11 -19
-11 -19 -19 0 -7 17 -8 18 -8 3z"/>
<path d="M2622 2744 c1 -9 9 -19 16 -22 9 -3 13 2 10 14 -1 9 -9 19 -16 22 -9
3 -13 -2 -10 -14z"/>
<path d="M2670 2717 c0 -8 7 -18 16 -21 11 -4 14 -1 12 11 -4 21 -28 30 -28
10z"/>
<path d="M2617 2669 c7 -7 15 -10 18 -7 3 3 -2 9 -12 12 -14 6 -15 5 -6 -5z"/>
<path d="M2770 2656 c0 -9 7 -16 16 -16 17 0 14 22 -4 28 -7 2 -12 -3 -12 -12z"/>
<path d="M2970 2547 c0 -25 17 -47 37 -47 19 0 16 41 -4 56 -26 19 -33 17 -33
-9z"/>
<path d="M0 2333 l0 -179 397 -229 c218 -127 400 -231 405 -233 7 -3 49 17
133 62 17 9 26 16 20 16 -5 0 14 12 43 27 28 14 48 31 45 36 -4 6 -1 7 6 2 18
-11 65 16 49 27 -20 14 32 -1 70 -20 31 -16 32 -18 32 -82 l0 -65 133 -77
c132 -77 132 -77 152 -57 15 15 17 22 7 28 -19 11 -12 70 7 63 10 -4 11 -7 3
-10 -18 -6 -15 -42 4 -42 8 0 12 -4 9 -10 -8 -13 1 -13 26 1 11 5 17 14 14 18
-2 5 3 8 12 7 23 -2 26 18 4 29 -19 10 -176 100 -210 120 -9 6 -58 34 -110 64
-52 30 -90 56 -83 59 6 2 40 -13 74 -34 35 -20 83 -48 108 -62 25 -13 51 -29
58 -35 7 -5 15 -7 18 -4 3 3 -9 13 -26 22 -18 9 -71 39 -118 67 -74 44 -82 52
-66 61 62 33 216 141 206 145 -7 2 -12 8 -12 14 0 6 7 8 15 5 8 -4 17 -1 21 4
3 6 15 9 25 6 24 -6 25 7 1 19 -17 8 -17 12 -4 34 13 23 13 23 9 2 -3 -12 -1
-20 3 -17 5 3 11 -1 14 -7 4 -7 4 -2 1 12 -15 69 -16 85 -7 72 7 -11 10 -11
15 2 4 9 4 23 0 32 -3 9 0 20 8 26 12 8 11 9 -1 5 -9 -2 -14 -14 -13 -30 2
-33 -17 -31 -35 3 l-13 25 5 -24 c3 -13 -2 -37 -9 -52 -10 -18 -11 -30 -5 -34
6 -3 10 3 10 14 0 12 5 21 10 21 6 0 10 -3 10 -6 0 -11 -23 -50 -41 -66 -28
-27 -36 -21 -9 7 30 32 18 32 -23 1 -30 -23 -36 -26 -53 -26 -4 0 -1 -6 5 -14
15 -18 -5 -34 -21 -18 -8 8 -19 7 -39 -4 -53 -27 -30 -7 41 36 89 54 110 80
110 136 0 48 15 58 31 22 9 -22 9 -22 4 2 -2 14 -5 29 -5 33 0 5 -5 5 -11 1
-33 -20 -81 -11 -84 16 -1 3 -4 15 -9 27 -7 22 -7 22 -28 3 -12 -11 -26 -16
-31 -13 -6 4 -8 0 -4 -10 3 -9 3 -16 -1 -16 -20 3 -25 -2 -12 -12 13 -9 13
-10 0 -6 -8 2 -14 10 -12 17 2 8 -3 10 -13 6 -9 -3 -20 -6 -23 -6 -4 0 0 -5 8
-10 13 -8 13 -10 -2 -10 -9 0 -29 -5 -43 -10 -24 -9 -26 -12 -14 -28 13 -15
12 -16 -3 -3 -16 12 -26 8 -85 -26 -38 -22 -103 -59 -145 -82 -43 -23 -78 -45
-78 -47 0 -3 5 -2 12 2 7 4 8 3 4 -5 -4 -6 -12 -9 -17 -5 -5 3 -21 -2 -35 -11
-24 -16 -27 -15 -77 13 -59 34 -622 359 -759 439 -5 2 -8 -76 -8 -174z m1355
-20 c-1 -10 2 -24 8 -30 7 -9 5 -13 -6 -13 -9 0 -29 -12 -44 -26 -25 -24 -25
-25 -3 -10 34 22 72 38 78 32 8 -9 -7 -52 -27 -78 -11 -14 -94 -67 -183 -118
-90 -51 -169 -100 -177 -109 -12 -14 -13 -11 -8 19 8 57 11 64 32 84 11 10 46
31 78 47 36 18 55 34 51 41 -4 7 -3 8 5 4 21 -13 144 74 132 93 -1 2 13 11 31
18 31 13 32 15 15 28 -18 13 -18 14 0 24 10 6 19 11 20 11 1 0 0 -8 -2 -17z
m-1091 -84 c29 -34 33 -70 11 -89 -33 -28 -99 58 -82 104 10 26 43 18 71 -15z
m976 21 c-8 -5 -19 -10 -25 -10 -5 0 -3 5 5 10 8 5 20 10 25 10 6 0 3 -5 -5
-10z m17 -26 c-3 -3 -12 -4 -19 -1 -8 3 -5 6 6 6 11 1 17 -2 13 -5z m-57 -25
c0 8 3 12 6 8 10 -10 -6 -26 -21 -21 -8 4 -12 11 -9 16 4 6 10 5 15 -3 7 -12
9 -12 9 0z m-771 -63 c13 -14 24 -38 24 -58 2 -29 -1 -33 -24 -36 -33 -4 -69
37 -69 78 0 47 32 55 69 16z m706 15 c3 -5 2 -12 -3 -15 -5 -3 -9 1 -9 9 0 17
3 19 12 6z m255 -81 c0 -5 -4 -10 -10 -10 -5 0 -10 5 -10 10 0 6 5 10 10 10 6
0 10 -4 10 -10z m-798 -24 c23 -17 40 -64 33 -87 -9 -28 -50 -24 -74 7 -20 26
-28 74 -14 87 10 11 36 8 55 -7z m698 -16 c-14 -11 -29 -20 -35 -20 -5 0 4 9
20 20 38 25 48 25 15 0z m110 10 c0 -5 -8 -10 -17 -10 -15 0 -16 2 -3 10 19
12 20 12 20 0z m-380 -136 c0 -8 -19 -13 -24 -6 -3 5 1 9 9 9 8 0 15 -2 15 -3z
m280 -176 c0 -51 -4 -55 -32 -34 -13 9 -18 27 -18 59 0 46 0 46 25 35 22 -10
25 -18 25 -60z m58 10 c13 -13 17 -98 5 -98 -25 1 -43 30 -43 69 0 42 14 53
38 29z m74 -85 c-6 -3 -9 -10 -5 -16 11 -18 12 -38 2 -31 -5 3 -7 10 -4 15 4
5 -1 12 -10 15 -14 6 -14 8 2 19 10 8 20 11 23 8 3 -3 -1 -8 -8 -10z"/>
<path d="M2550 2506 c0 -2 8 -10 18 -17 15 -13 16 -12 3 4 -13 16 -21 21 -21
13z"/>
<path d="M1610 2481 c0 -11 4 -22 9 -25 4 -3 6 6 3 19 -5 30 -12 33 -12 6z"/>
<path d="M1585 2480 c-3 -5 -1 -10 4 -10 6 0 11 5 11 10 0 6 -2 10 -4 10 -3 0
-8 -4 -11 -10z"/>
<path d="M2742 2464 c1 -9 9 -19 16 -22 9 -3 13 2 10 14 -1 9 -9 19 -16 22 -9
3 -13 -2 -10 -14z"/>
<path d="M2840 2412 c0 -5 7 -16 16 -23 14 -12 16 -11 13 5 -4 20 -29 35 -29
18z"/>
<path d="M1425 2380 c6 -10 4 -12 -7 -7 -11 4 -15 1 -13 -11 2 -9 4 -20 4 -24
1 -5 6 -8 12 -8 5 0 7 5 4 10 -4 6 -2 17 5 25 8 10 8 15 -1 21 -8 5 -9 3 -4
-6z"/>
<path d="M1516 2201 c-4 -7 -5 -15 -2 -18 9 -9 19 4 14 18 -4 11 -6 11 -12 0z"/>
<path d="M1540 2185 c0 -8 4 -15 8 -15 5 0 9 7 9 15 0 8 -4 15 -9 15 -4 0 -8
-7 -8 -15z"/>
<path d="M1577 2189 c7 -7 15 -10 18 -7 3 3 -2 9 -12 12 -14 6 -15 5 -6 -5z"/>
<path d="M1501 2154 c0 -11 3 -14 6 -6 3 7 2 16 -1 19 -3 4 -6 -2 -5 -13z"/>
<path d="M1564 2148 c3 -11 -1 -18 -12 -20 -11 -2 -13 -6 -6 -11 18 -11 35 15
22 33 -8 13 -9 12 -4 -2z"/>
<path d="M3792 2121 c-10 -6 -4 -14 24 -30 20 -12 44 -21 52 -19 27 5 24 26
-7 42 -34 18 -50 20 -69 7z"/>
<path d="M3717 2081 c-36 -23 -36 -29 0 -52 36 -24 40 -24 87 5 l40 24 -42 21
c-50 25 -50 25 -85 2z"/>
<path d="M1325 2070 c3 -5 11 -10 16 -10 6 0 7 5 4 10 -3 6 -11 10 -16 10 -6
0 -7 -4 -4 -10z"/>
<path d="M1446 2054 c-5 -14 -4 -15 9 -4 17 14 19 20 6 20 -5 0 -12 -7 -15
-16z"/>
<path d="M3926 2049 c-16 -10 -14 -14 23 -36 34 -20 44 -22 62 -12 22 11 21
12 -17 35 -45 27 -43 27 -68 13z"/>
<path d="M3607 2026 l-38 -24 59 -36 c33 -20 64 -36 70 -36 11 0 82 39 82 45
0 4 -125 75 -131 75 -2 0 -21 -11 -42 -24z"/>
<path d="M3813 2019 c-18 -12 -33 -23 -33 -25 0 -2 18 -13 40 -24 l41 -21 40
24 40 24 -36 22 c-44 26 -52 26 -92 0z"/>
<path d="M4024 1988 c-15 -23 61 -57 91 -40 14 7 11 12 -20 30 -41 25 -60 27
-71 10z"/>
<path d="M3512 1970 c-18 -11 -30 -24 -27 -29 7 -13 131 -81 145 -81 7 0 28
10 47 21 l35 22 -74 43 c-40 24 -77 44 -83 44 -5 0 -25 -9 -43 -20z"/>
<path d="M3913 1960 c-18 -11 -33 -22 -33 -25 0 -2 18 -14 40 -25 l39 -20 36
21 c43 26 44 34 5 54 -38 20 -48 19 -87 -5z"/>
<path d="M3757 1941 c-42 -27 -42 -28 2 -51 l41 -20 40 20 c22 11 40 22 40 24
0 8 -68 46 -81 45 -8 0 -26 -8 -42 -18z"/>
<path d="M4122 1931 c-10 -6 -5 -14 21 -30 37 -23 54 -26 76 -12 11 7 7 14
-20 30 -37 23 -56 26 -77 12z"/>
<path d="M3408 1912 c-16 -10 -28 -20 -28 -24 0 -4 45 -33 101 -64 l101 -57
36 21 c20 11 37 25 36 29 -2 13 -178 112 -199 112 -11 -1 -32 -8 -47 -17z"/>
<path d="M4018 1907 c-21 -12 -38 -25 -38 -28 0 -7 67 -39 82 -39 6 0 26 10
45 21 l34 21 -38 24 c-21 13 -40 23 -43 23 -3 0 -22 -10 -42 -22z"/>
<path d="M3863 1879 c-18 -12 -33 -22 -33 -24 0 -2 16 -12 35 -24 l36 -21 39
20 c22 11 40 23 40 25 0 8 -63 45 -75 45 -5 0 -25 -10 -42 -21z"/>
<path d="M3698 1869 c-21 -11 -38 -23 -38 -27 0 -4 16 -16 35 -26 34 -19 36
-19 71 0 20 10 37 22 39 25 2 3 -13 15 -33 27 -37 20 -37 20 -74 1z"/>
<path d="M4230 1874 c-15 -17 -15 -16 27 -38 31 -15 63 -13 63 5 0 5 -18 18
-39 29 -34 17 -41 18 -51 4z"/>
<path d="M3312 1854 c-46 -28 -46 -36 1 -60 29 -16 33 -15 74 7 24 13 43 27
43 30 0 6 -66 49 -73 49 -1 0 -21 -12 -45 -26z"/>
<path d="M4116 1846 l-40 -24 35 -21 c43 -26 53 -26 96 1 l35 21 -38 23 c-22
13 -41 24 -44 24 -3 0 -23 -11 -44 -24z"/>
<path d="M1975 1819 c-16 -11 -29 -24 -27 -30 2 -7 -4 -9 -14 -5 -11 4 -26 -2
-41 -16 -14 -13 -25 -21 -26 -19 -1 3 -30 -11 -65 -30 -34 -20 -59 -39 -55
-43 4 -4 -1 -4 -11 0 -15 6 -17 4 -11 -6 5 -8 4 -11 -3 -6 -6 3 -26 -3 -44
-13 -32 -20 -32 -20 -68 -1 l-35 20 30 -25 30 -25 -23 -15 c-12 -9 -22 -23
-22 -31 0 -8 -4 -13 -9 -10 -10 6 -25 -24 -16 -32 3 -3 5 0 5 7 0 7 5 9 11 5
8 -4 7 -9 -2 -15 -19 -11 -32 0 -26 22 6 24 -1 24 -36 0 -32 -21 -33 -19 61
-76 l63 -37 35 18 c19 10 34 22 34 26 0 5 3 7 8 6 4 -1 18 4 31 11 l23 13 -32
27 c-24 20 -31 32 -26 46 6 18 25 32 148 101 21 12 35 24 32 26 -3 3 7 9 21
12 16 4 23 11 19 18 -5 8 -2 9 10 5 11 -5 15 -3 10 5 -5 8 -2 9 9 5 10 -4 16
-2 14 5 -1 6 4 13 12 16 9 3 11 0 6 -8 -6 -9 -4 -11 4 -5 9 5 10 10 2 18 -8 8
-14 8 -23 -1 -16 -16 -25 -15 -25 3 0 15 31 30 45 21 4 -2 9 4 9 15 1 10 1 19
0 18 -1 0 -15 -9 -32 -20z m-37 -47 c9 -6 6 -12 -13 -22 -29 -16 -43 -7 -25
15 14 17 20 18 38 7z"/>
<path d="M1910 1760 c-9 -6 -10 -10 -3 -10 6 0 15 5 18 10 8 12 4 12 -15 0z"/>
<path d="M3963 1819 c-18 -12 -33 -23 -33 -25 0 -2 18 -13 40 -24 l41 -21 40
24 40 24 -34 22 c-42 26 -54 26 -94 0z"/>
<path d="M2025 1820 c-3 -6 1 -7 9 -4 18 7 21 14 7 14 -6 0 -13 -4 -16 -10z"/>
<path d="M3797 1808 c-43 -22 -40 -36 13 -58 25 -11 34 -9 65 10 19 12 35 23
35 26 0 2 -17 12 -38 23 -37 19 -38 19 -75 -1z"/>
<path d="M2824 1794 c-15 -22 -15 -27 -3 -35 10 -6 16 -2 22 16 5 15 13 22 20
18 7 -4 6 1 -2 10 -17 22 -17 22 -37 -9z"/>
<path d="M3416 1797 c-21 -12 -38 -26 -38 -32 1 -5 17 -18 35 -29 32 -18 32
-18 81 10 l48 27 -38 23 c-22 13 -41 24 -44 24 -3 0 -23 -10 -44 -23z"/>
<path d="M2030 1800 c-9 -6 -10 -10 -3 -10 6 0 15 5 18 10 8 12 4 12 -15 0z"/>
<path d="M2070 1804 c0 -5 -12 -17 -27 -26 -16 -10 -23 -17 -18 -18 17 0 60
38 52 46 -4 4 -7 3 -7 -2z"/>
<path d="M4216 1787 l-38 -24 37 -21 c20 -12 40 -22 45 -22 9 0 80 40 80 45 0
5 -70 45 -78 45 -4 0 -24 -11 -46 -23z"/>
<path d="M2915 1790 c-3 -5 1 -20 9 -32 9 -12 16 -17 16 -11 0 7 -4 15 -10 18
-5 3 -10 11 -10 17 0 6 10 3 23 -8 l22 -19 -19 23 c-22 25 -23 26 -31 12z"/>
<path d="M3643 1783 c-18 -9 -33 -20 -33 -24 0 -4 16 -18 37 -30 l36 -23 36
21 c47 27 48 36 6 56 -42 20 -41 20 -82 0z"/>
<path d="M4067 1761 c-42 -27 -42 -28 2 -51 l41 -20 40 20 c22 11 40 23 40 25
0 9 -65 45 -80 44 -8 0 -27 -8 -43 -18z"/>
<path d="M2056 1757 c-16 -12 -16 -13 2 -13 10 0 19 6 19 13 0 7 -1 13 -2 13
-1 0 -9 -6 -19 -13z"/>
<path d="M2896 1757 c3 -10 9 -15 12 -12 3 3 0 11 -7 18 -10 9 -11 8 -5 -6z"/>
<path d="M3897 1751 c-42 -27 -42 -28 2 -50 l40 -21 36 21 c19 12 35 22 35 24
0 5 -71 45 -78 44 -4 0 -19 -8 -35 -18z"/>
<path d="M3507 1735 c-20 -14 -37 -28 -37 -30 0 -3 17 -13 38 -24 l38 -20 45
26 c24 13 45 26 47 28 5 4 -68 45 -81 45 -7 0 -29 -11 -50 -25z"/>
<path d="M1460 1731 c14 -11 30 -21 35 -21 11 0 -7 14 -40 31 -13 7 -12 3 5
-10z"/>
<path d="M4317 1731 c-42 -27 -42 -28 2 -51 l41 -20 40 20 c22 11 40 23 40 25
0 9 -65 45 -80 44 -8 0 -27 -8 -43 -18z"/>
<path d="M3743 1723 c-18 -9 -33 -20 -33 -25 0 -4 17 -16 37 -27 37 -19 38
-19 75 0 21 11 38 23 38 27 0 10 -55 42 -72 41 -7 0 -28 -8 -45 -16z"/>
<path d="M2690 1720 c-8 -5 -18 -6 -22 -4 -4 3 -5 -3 -1 -12 5 -14 3 -16 -12
-11 -15 6 -16 5 -5 -8 7 -9 21 -20 31 -25 14 -8 16 -6 12 11 -3 12 0 25 7 29
7 4 11 13 9 19 -3 6 -9 7 -19 1z"/>
<path d="M4168 1702 c-16 -9 -28 -20 -28 -23 0 -4 16 -17 36 -28 l36 -21 39
22 c21 12 39 24 39 27 0 10 -61 41 -78 41 -9 0 -29 -8 -44 -18z"/>
<path d="M1510 1706 c0 -3 9 -10 20 -16 11 -6 20 -8 20 -6 0 3 -9 10 -20 16
-11 6 -20 8 -20 6z"/>
<path d="M3992 1692 c-39 -19 -38 -27 10 -54 l36 -21 36 22 c20 13 36 26 36
30 0 10 -55 41 -72 40 -7 0 -28 -8 -46 -17z"/>
<path d="M3610 1678 c-19 -12 -37 -23 -39 -25 -6 -4 23 -25 74 -52 l43 -23 47
30 47 29 -56 32 c-66 37 -71 37 -116 9z"/>
<path d="M2776 1682 c-3 -5 1 -9 9 -9 8 0 12 4 9 9 -3 4 -7 8 -9 8 -2 0 -6 -4
-9 -8z"/>
<path d="M4412 1668 l-33 -21 40 -24 41 -24 40 23 c22 13 40 26 40 29 0 8 -68
39 -83 38 -7 0 -27 -10 -45 -21z"/>
<path d="M3838 1662 c-16 -10 -28 -19 -28 -22 0 -3 17 -15 38 -26 37 -22 37
-22 75 -3 45 23 46 34 7 54 -36 19 -57 18 -92 -3z"/>
<path d="M4278 1649 c-21 -11 -38 -23 -38 -27 0 -11 55 -42 73 -42 17 0 77 32
77 41 0 3 -17 15 -37 26 -38 21 -38 21 -75 2z"/>
<path d="M4088 1632 c-16 -10 -28 -20 -28 -24 0 -4 17 -16 37 -27 37 -19 38
-19 75 0 46 23 47 34 8 54 -36 19 -57 18 -92 -3z"/>
<path d="M4528 1619 c-21 -11 -38 -24 -38 -29 0 -11 53 -40 74 -40 16 0 76 32
76 41 0 3 -17 15 -37 26 -38 21 -38 21 -75 2z"/>
<path d="M3948 1608 c-21 -12 -38 -25 -38 -28 0 -4 18 -15 41 -25 39 -18 42
-18 75 0 19 10 34 22 34 27 0 8 -59 48 -70 48 -3 0 -22 -10 -42 -22z"/>
<path d="M3752 1593 c-24 -14 -40 -29 -35 -33 4 -5 44 -28 88 -52 44 -25 144
-81 221 -126 78 -45 147 -82 153 -82 17 0 91 39 91 48 0 4 -28 23 -63 43 -34
20 -137 79 -228 132 -92 54 -170 97 -175 96 -5 -1 -28 -12 -52 -26z"/>
<path d="M4378 1589 c-21 -11 -38 -23 -38 -27 0 -4 16 -16 35 -26 34 -18 36
-19 75 -1 22 10 40 21 40 26 0 6 -66 50 -73 49 -1 -1 -19 -10 -39 -21z"/>
<path d="M4201 1577 c-23 -11 -41 -23 -41 -27 0 -3 15 -14 34 -24 38 -20 67
-17 103 11 l23 18 -39 21 -40 22 -40 -21z"/>
<path d="M4627 1557 c-20 -11 -37 -24 -37 -27 0 -3 16 -14 35 -24 34 -18 36
-19 75 -1 22 10 40 22 40 26 0 5 -17 17 -38 28 -38 19 -38 19 -75 -2z"/>
<path d="M4046 1546 l-38 -23 35 -21 c19 -12 39 -22 45 -22 12 0 82 39 82 46
0 3 -76 44 -82 44 -2 0 -20 -11 -42 -24z"/>
<path d="M4782 1551 c-10 -6 -4 -14 24 -30 20 -12 44 -21 52 -19 27 5 24 26
-7 42 -34 18 -50 20 -69 7z"/>
<path d="M4472 1528 c-37 -23 -32 -37 18 -58 25 -10 34 -9 70 11 l41 23 -38
23 c-45 27 -48 27 -91 1z"/>
<path d="M4296 1516 l-40 -24 35 -21 c18 -11 39 -21 46 -21 12 0 83 39 83 46
0 3 -76 44 -82 44 -2 0 -21 -11 -42 -24z"/>
<path d="M4726 1500 c-16 -10 -32 -24 -37 -31 -6 -10 -13 -8 -34 5 -30 20 -57
16 -94 -12 l-23 -19 37 -22 c33 -19 42 -21 67 -10 16 6 35 20 42 31 13 19 15
19 46 3 31 -16 35 -16 71 1 22 9 39 21 39 26 0 10 -61 48 -75 47 -5 0 -23 -9
-39 -19z"/>
<path d="M4141 1485 l-33 -23 41 -21 41 -21 40 20 c22 11 40 22 40 24 0 8 -68
46 -81 46 -8 -1 -29 -12 -48 -25z"/>
<path d="M4885 1496 c-18 -13 -16 -15 22 -35 67 -33 100 -9 39 28 -40 25 -37
25 -61 7z"/>
<path d="M2736 1458 c1 -13 3 -26 3 -29 1 -3 20 -16 44 -29 23 -13 138 -79
255 -147 118 -68 219 -120 225 -116 5 3 7 2 4 -3 -8 -13 191 -126 205 -118 6
4 8 3 5 -2 -3 -6 83 -61 191 -123 108 -63 267 -154 352 -204 134 -78 162 -91
210 -94 61 -5 28 -22 625 324 105 60 251 145 325 187 74 43 143 87 153 98 9
11 17 34 17 51 0 27 -2 29 -12 15 -18 -23 -1004 -589 -1057 -607 -75 -25 16
-72 -1125 587 -214 123 -396 227 -406 229 -13 3 -16 -1 -14 -19z"/>
<path d="M4397 1459 c-21 -11 -36 -23 -33 -27 2 -4 20 -16 40 -26 35 -19 37
-19 72 0 20 10 38 22 40 26 4 6 -61 48 -74 48 -4 -1 -24 -10 -45 -21z"/>
<path d="M4821 1438 l-33 -21 23 -18 c38 -29 57 -32 91 -12 43 25 44 36 3 56
-44 21 -43 21 -84 -5z"/>
<path d="M4246 1429 c-41 -22 -41 -23 16 -55 25 -13 31 -13 68 6 22 11 40 23
40 25 0 8 -63 45 -75 45 -5 -1 -28 -10 -49 -21z"/>
<path d="M4986 1439 c-16 -10 -14 -14 23 -36 34 -20 44 -22 62 -12 22 11 21
12 -17 35 -45 27 -43 27 -68 13z"/>
<path d="M4673 1410 c-18 -11 -33 -22 -33 -25 0 -2 18 -14 39 -25 l40 -20 41
24 41 23 -34 22 c-42 26 -53 26 -94 1z"/>
<path d="M4497 1401 c-42 -27 -42 -28 2 -51 38 -19 43 -19 69 -6 57 32 58 33
21 55 -41 25 -55 25 -92 2z"/>
<path d="M4923 1379 c-18 -12 -33 -23 -33 -25 0 -2 18 -13 40 -24 l41 -21 40
24 40 24 -36 22 c-44 26 -52 26 -92 0z"/>
<path d="M4348 1372 c-16 -9 -28 -20 -28 -24 0 -3 16 -16 35 -28 l34 -21 40
23 c23 13 41 25 41 28 0 9 -61 40 -78 40 -9 0 -29 -8 -44 -18z"/>
<path d="M5081 1377 c-16 -20 60 -54 91 -40 20 9 19 10 -16 31 -43 25 -59 27
-75 9z"/>
<path d="M4771 1349 l-34 -20 38 -24 39 -23 43 21 c24 12 43 23 43 26 0 10
-61 41 -78 41 -9 0 -32 -9 -51 -21z"/>
<path d="M4592 1338 l-33 -21 40 -24 41 -24 40 22 c22 13 40 25 40 28 0 10
-60 41 -78 41 -9 0 -32 -10 -50 -22z"/>
<path d="M5028 1329 c-44 -22 -47 -31 -15 -47 12 -6 41 -22 65 -36 l43 -24 39
22 c22 11 40 23 40 26 0 3 -30 21 -68 42 l-67 36 -37 -19z"/>
<path d="M4252 1314 c-23 -14 -42 -28 -42 -32 0 -4 24 -21 54 -37 l55 -30 45
23 c25 12 46 25 46 30 0 4 -26 22 -58 39 l-58 32 -42 -25z"/>
<path d="M4458 1319 c-21 -11 -38 -23 -38 -27 0 -5 17 -18 37 -29 l37 -21 38
21 c21 12 38 25 38 28 0 3 -17 15 -37 26 -38 21 -38 21 -75 2z"/>
<path d="M4876 1295 l-39 -24 34 -20 c43 -26 53 -26 96 1 l35 21 -38 23 c-22
13 -41 24 -44 24 -3 -1 -23 -11 -44 -25z"/>
<path d="M4707 1287 c-20 -11 -37 -24 -37 -29 0 -10 54 -38 74 -38 16 0 76 32
76 41 0 3 -17 15 -38 27 l-37 21 -38 -22z"/>
<path d="M4558 1259 c-21 -11 -38 -23 -38 -27 0 -4 16 -16 35 -26 34 -18 36
-19 75 -1 22 10 40 21 40 26 0 7 -62 50 -71 49 -2 -1 -21 -10 -41 -21z"/>
<path d="M4388 1236 c-53 -31 -53 -31 -13 -56 36 -22 37 -22 76 -5 63 29 67
41 20 64 -22 12 -42 21 -43 20 -2 0 -20 -11 -40 -23z"/>
<path d="M4977 1236 l-38 -24 34 -21 c19 -11 39 -21 45 -21 11 0 82 39 82 45
0 5 -70 45 -78 45 -4 0 -24 -11 -45 -24z"/>
<path d="M4807 1227 c-20 -11 -37 -24 -37 -27 0 -3 34 -25 76 -49 l77 -43 34
19 c19 10 37 21 39 25 5 8 -46 42 -111 76 l-41 20 -37 -21z"/>
<path d="M4656 1199 c-29 -16 -35 -24 -27 -32 9 -9 6 -16 -11 -30 -14 -11 -18
-20 -12 -23 6 -3 20 -12 30 -20 12 -10 5 -8 -16 3 -27 15 -41 17 -58 10 -30
-14 -28 -18 18 -45 32 -18 44 -20 60 -12 11 6 20 15 20 20 0 6 3 9 8 8 4 -1
17 2 30 6 20 7 21 10 10 24 -7 8 15 0 48 -18 l61 -34 42 18 c22 11 41 22 41
26 0 6 -193 121 -202 120 -2 -1 -20 -10 -42 -21z m34 -75 c0 -2 -9 0 -20 6
-11 6 -20 13 -20 16 0 2 9 0 20 -6 11 -6 20 -13 20 -16z"/>
<path d="M4453 1163 c-21 -8 -15 -18 27 -42 31 -17 44 -20 60 -11 26 14 26 15
-14 39 -33 21 -50 24 -73 14z"/>
<path d="M4663 1047 c-32 -14 -29 -20 20 -44 31 -15 48 -18 60 -11 25 13 21
22 -20 45 -30 16 -43 18 -60 10z"/>
<path d="M2560 783 c0 -14 550 -324 561 -317 6 3 -25 27 -68 51 -113 66 -137
79 -211 121 -37 21 -111 64 -165 95 -95 56 -117 65 -117 50z"/>
<path d="M2775 781 c6 -11 63 -41 77 -41 20 0 5 18 -27 33 -40 19 -59 22 -50
8z"/>
<path d="M2060 766 c0 -33 21 -66 52 -82 18 -9 107 -60 198 -114 368 -216 777
-450 815 -466 75 -31 122 -18 295 81 232 132 374 217 382 229 4 6 8 25 8 41 0
17 -4 25 -8 19 -4 -7 -52 -38 -107 -69 -55 -32 -174 -101 -265 -154 -163 -95
-166 -96 -230 -96 -63 0 -71 3 -195 74 -72 41 -150 86 -175 101 -25 15 -133
77 -240 139 -107 62 -202 116 -210 121 -8 5 -71 41 -140 81 -69 39 -137 81
-152 91 -23 16 -28 17 -28 4z m847 -497 c46 -25 59 -37 51 -45 -9 -8 -68 25
-68 38 0 6 -3 9 -6 5 -11 -10 -64 22 -64 39 0 15 2 15 24 0 14 -8 42 -25 63
-37z"/>
</g>
</svg>
